<svg width="1200" height="720" viewBox="0 0 1200 720" fill="none" xmlns="http://www.w3.org/2000/svg">
  <rect width="1200" height="720" rx="40" fill="#FFF9F3"/>
  <circle cx="1018" cy="144" r="100" fill="#D88C3A" fill-opacity="0.18"/>
  <rect x="92" y="104" width="488" height="512" rx="34" fill="white" stroke="#F2DFC9" stroke-width="4"/>
  <rect x="136" y="154" width="188" height="22" rx="11" fill="#F6E9D8"/>
  <rect x="136" y="194" width="320" height="30" rx="15" fill="#0F5D4F" fill-opacity="0.14"/>
  <rect x="136" y="254" width="396" height="92" rx="24" fill="#FFF9F3" stroke="#F2DFC9" stroke-width="3"/>
  <rect x="136" y="370" width="396" height="92" rx="24" fill="#FFF9F3" stroke="#F2DFC9" stroke-width="3"/>
  <rect x="136" y="486" width="396" height="92" rx="24" fill="#FFF9F3" stroke="#F2DFC9" stroke-width="3"/>
  <rect x="664" y="144" width="420" height="432" rx="34" fill="#0F5D4F"/>
  <circle cx="874" cy="250" r="114" fill="white" fill-opacity="0.16"/>
  <path d="M822 250H926" stroke="white" stroke-width="22" stroke-linecap="round"/>
  <path d="M874 198V302" stroke="white" stroke-width="22" stroke-linecap="round"/>
  <rect x="736" y="422" width="276" height="28" rx="14" fill="white" fill-opacity="0.9"/>
  <rect x="736" y="466" width="220" height="22" rx="11" fill="white" fill-opacity="0.58"/>
  <rect x="736" y="512" width="188" height="22" rx="11" fill="white" fill-opacity="0.4"/>
</svg>

